<svg width="4936" height="876" viewBox="0 0 4936 876" fill="none" xmlns="http://www.w3.org/2000/svg">
<path d="M997.553 559.7C970.253 602.5 923.153 650.1 821.953 650.3C717.053 650.6 687.653 613.9 670.853 591.7C670.253 590.8 668.153 592 668.153 592L585.253 839L386.253 839.6L538.953 377.5L564.653 240.7H761.253L764.353 307.4L767.153 306.7C798.853 284.7 849.253 241.5 961.453 241.1C1063.65 240.8 1075.85 288.1 1075.95 330.9C1076.15 374.8 1025.95 516.9 997.553 559.7ZM828.753 336C794.653 335.1 739.953 379.2 732.253 402.3L705.053 483.7C697.453 505.7 712.953 553.9 745.853 555.1C796.453 558.1 820.553 501 825.853 486.7L852.053 409.7C856.453 395.3 879.253 338 828.753 336.1V336Z" fill="#0088CE"/>
<path d="M2030.75 653.5L2104.65 431.1C2110.15 416.8 2129.55 358.6 2078.05 358.8C2045.15 358.8 1993.65 406.2 1986.05 429.3L1910.05 653.5H1696.05L1797.25 358.5L1828.05 240.7H2046.75L2030.65 303.9C2063.65 281.8 2115.05 239.8 2228.35 239.6C2330.55 239.2 2341.65 287.7 2341.75 329.4C2341.75 329.4 2340.95 372 2248.45 653.5H2030.75Z" fill="#0088CE"/>
<path d="M2806.55 648.6C2777.95 733.1 2701.25 838.3 2518.05 839.9C2334.85 841.6 2324.45 759.2 2324.45 759.2C2370.35 773.3 2545.95 795 2603.35 654.4C2609.35 642.2 2618.15 611 2624.25 593.5C2624.65 592 2623.15 592.3 2622.15 593C2589.15 616.4 2537.55 652.8 2431.95 653C2329.75 653.4 2315.25 607.3 2316.25 564.4C2317.15 520.5 2368.35 371.9 2397.85 329.1C2427.55 284.9 2470.15 238.7 2572.35 238.4C2684.45 238.1 2708.55 279.6 2725.25 301.6L2748.55 240.8H2941.85C2941.85 240.8 2876.95 440.6 2806.45 648.7H2806.55V648.6ZM2650.55 330.5C2600.05 330.5 2581.55 389 2576.05 402L2539.95 487.9C2533.35 501.1 2516.15 559.4 2567.75 559.3C2600.75 559.1 2650.05 511.7 2658.65 489.7L2669.65 463.4L2698.05 386.3C2695.85 362.1 2678.05 330.4 2650.55 330.5Z" fill="#0088CE"/>
<path d="M3318.75 212.1C3315.55 212.1 3263.55 170.1 3237.55 236.6C3237.55 236.6 3237.75 236.1 3234.85 243.1H3279.85C3279.85 243 3246.65 333.2 3246.65 333.2L3205.95 333.4L3092.75 653.5H2888.45L2998.35 331.9H2945.25L2975.15 243.9L3029.05 243.7L3029.75 240.4C3075.55 105 3195.15 63.0002 3300.55 62.7002C3341.35 62.7002 3370.05 71.2002 3376.55 73.3002L3318.75 212V212.1Z" fill="#0088CE"/>
<path d="M3862.15 466.2C3811.85 649.3 4153.15 553.2 4153.15 553.2C4153.15 553.2 4086.65 648.4 3894.55 655C3822.25 651.8 3639.45 635 3639.05 477.8C3638.65 385.4 3747.05 224.7 3977.85 223.9C3977.85 223.9 4319.65 222.8 4195.05 465.1L3862.15 466.1V466.2ZM3964.95 319.7C3964.95 319.7 3892.45 319.9 3873.95 415.6L4014.75 415.2C4061.75 319.5 3965.05 319.7 3965.05 319.7H3964.95Z" fill="#0088CE"/>
<path d="M1481.15 381.9C1481.15 381.9 1324.75 332.6 1275.85 468.4L1212.55 653.5H1017.05L1118.35 360.6L1141.75 240.7H1316.25L1314.65 293.3L1318.15 293.5C1318.15 293.5 1382.35 246.7 1412.25 240C1466.95 227.9 1529.05 240.8 1529.05 240.8L1481.05 381.9H1481.15Z" fill="#0088CE"/>
<path d="M1538.05 359.3L1567.85 240.7H1782.85L1637.95 653.2L1434.35 653.9L1538.05 359.3Z" fill="#0088CE"/>
<path d="M1834.35 95.2002C1822.85 147.8 1766.65 190.7 1708.45 190.9C1650.35 191 1612.55 148.7 1623.85 95.8002C1635.25 43.3002 1691.55 0.300176 1749.75 0.000175696C1807.95 -0.0998243 1845.85 42.5002 1834.35 95.1002V95.2002Z" fill="#0088CE"/>
<path d="M332.453 377.1C335.753 363.7 332.453 351.8 326.653 344.4C316.553 331 280.853 332.3 267.453 332.3C254.153 332.4 216.353 339.1 216.353 377C216.353 414.9 245.453 405.9 254.353 406.9C284.253 411.2 315.553 416.8 345.553 419.9C410.153 427.6 469.153 450.7 464.853 507.6C458.753 589.5 356.753 668.4 213.953 668.8C86.8534 669.2 30.0534 629.1 17.9534 590.1C17.9534 590.1 232.253 641.5 246.353 551.7C254.253 452.2 -12.4466 554.7 0.453429 384.4C6.85343 304.3 90.8534 279.7 134.753 264.9C178.553 250 233.653 243.4 275.953 243.3C442.753 242.8 530.653 285.1 510.353 376.2C463.453 375.9 417.453 376.9 332.253 377.2H332.453V377.1Z" fill="#0088CE"/>
<path d="M3658.75 368.4C3658.75 368.4 3498.75 329.8 3449.85 465.5L3385.85 652.4L3190.05 653L3292.25 357.8L3315.75 239.1L3490.25 238.6L3488.65 290.6H3492.25C3492.25 290.7 3557.35 247.4 3586.25 237.2C3633.35 220.6 3706.85 227.4 3706.85 227.4L3658.65 368.4H3658.75Z" fill="#0088CE"/>
<path d="M4452.55 466.2C4402.25 649.3 4743.55 553.2 4743.55 553.2C4743.55 553.2 4677.05 648.4 4484.95 655C4412.65 651.8 4229.85 635 4229.45 477.8C4229.05 385.4 4337.45 224.7 4568.25 223.9C4568.25 223.9 4910.05 222.8 4785.45 465.1L4452.55 466.1V466.2ZM4555.35 319.7C4555.35 319.7 4482.85 319.9 4464.35 415.6L4605.15 415.2C4652.15 319.5 4555.45 319.7 4555.45 319.7H4555.35Z" fill="#0088CE"/>
<path d="M2942.75 721.5H2890.95V702.8H3016.95V721.5H2964.95V873H2942.75V721.5Z" fill="#0088CE"/>
<path d="M3087.85 705C3098.95 702.7 3114.85 701.5 3130.05 701.5C3153.55 701.5 3168.65 705.8 3179.35 715.4C3187.95 723 3192.75 734.6 3192.75 747.7C3192.75 770.2 3178.65 785.1 3160.65 791.1V791.9C3173.75 796.4 3181.65 808.6 3185.65 826.2C3191.15 849.9 3195.25 866.4 3198.75 872.9H3176.05C3173.25 867.8 3169.45 853.5 3164.65 832.2C3159.65 808.7 3150.55 799.9 3130.55 799.1H3109.85V872.9H3087.85V704.9V705ZM3109.85 782.6H3132.35C3155.85 782.6 3170.75 769.7 3170.75 750.3C3170.75 730.9 3154.85 718.7 3131.55 718.5C3120.95 718.5 3113.35 719.5 3109.85 720.5V782.6Z" fill="#0088CE"/>
<path d="M3304.55 819.5L3286.85 873.1H3264.15L3321.95 702.9H3348.45L3406.55 873.1H3383.05L3364.85 819.5H3304.45H3304.55ZM3360.35 802.3L3343.65 753.3C3339.85 742.2 3337.35 732.1 3334.85 722.2H3334.35C3331.85 732.3 3329.05 742.6 3325.75 753L3309.05 802.3H3360.35Z" fill="#0088CE"/>
<path d="M3625.95 798.3C3624.65 774.6 3623.15 746 3623.45 724.8H3622.65C3616.85 744.8 3609.75 766.2 3601.15 789.5L3571.05 872.1H3554.35L3526.85 791C3518.75 767 3511.95 745 3507.15 724.8H3506.65C3506.15 746 3504.85 774.6 3503.35 800.1L3498.85 873.1H3477.85L3489.75 702.9H3517.75L3546.75 785.2C3553.85 806.2 3559.65 824.9 3563.95 842.5H3564.75C3569.05 825.3 3575.15 806.6 3582.65 785.2L3612.95 702.9H3640.95L3651.55 873.1H3630.05L3625.75 798.3H3625.95Z" fill="#0088CE"/>
<path d="M3737.55 704.8C3748.15 703 3762.05 701.5 3779.75 701.5C3797.45 701.5 3817.35 706.6 3827.45 715.6C3836.75 723.7 3842.35 736 3842.35 751.2C3842.35 766.4 3837.85 778.7 3829.25 787.6C3817.65 800 3798.65 806.3 3777.25 806.3C3755.85 806.3 3764.65 806 3759.55 804.8V873H3737.55V704.8ZM3759.45 786.9C3764.25 788.2 3770.25 788.7 3777.65 788.7C3804.15 788.7 3820.35 775.8 3820.35 752.3C3820.35 728.8 3804.45 719 3780.15 719C3755.85 719 3763.25 719.8 3759.45 720.8V787V786.9Z" fill="#0088CE"/>
<path d="M4069.35 786.1C4069.35 844.7 4033.75 875.8 3990.25 875.8C3946.75 875.8 3913.75 840.9 3913.75 789.4C3913.75 737.9 3947.35 700 3992.85 700C4038.35 700 4069.35 735.6 4069.35 786.1ZM3937.25 788.9C3937.25 825.3 3956.95 857.9 3991.55 857.9C4026.15 857.9 4046.15 825.8 4046.15 787.2C4046.15 748.6 4028.45 718 3991.85 718C3955.25 718 3937.25 751.6 3937.25 789V788.9Z" fill="#0088CE"/>
<path d="M4149.85 702.8H4171.85V854.6H4244.55V873H4149.85V702.8Z" fill="#0088CE"/>
<path d="M4342.95 702.8V873H4320.95V702.8H4342.95Z" fill="#0088CE"/>
<path d="M4433.35 873V702.8H4457.35L4511.95 788.9C4524.55 808.9 4534.45 826.8 4542.55 844.2L4543.05 844C4541.05 821.3 4540.55 800.6 4540.55 774V702.8H4561.25V873H4539.05L4484.95 786.6C4473.05 767.7 4461.75 748.2 4453.15 729.8L4452.35 730C4453.65 751.5 4454.15 771.9 4454.15 800.2V872.9H4433.35V873Z" fill="#0088CE"/>
<path d="M4739.65 793.2H4673.45V854.6H4747.25V873H4651.55V702.8H4743.45V721.2H4673.45V775H4739.65V793.2Z" fill="#0088CE"/>
<path d="M4935.65 229.3C4935.65 257.3 4913.75 279.2 4885.15 279.2C4856.55 279.2 4834.35 257.3 4834.35 229.3C4834.35 201.3 4856.85 180 4885.15 180C4913.45 180 4935.65 202 4935.65 229.3ZM4846.95 229.3C4846.95 251.3 4863.25 268.7 4885.45 268.7C4907.65 268.7 4923.05 251.3 4923.05 229.6C4923.05 207.9 4907.15 189.9 4885.15 189.9C4863.15 189.9 4846.95 207.6 4846.95 229.3ZM4877.35 255.1H4865.95V205.8C4870.45 204.9 4876.75 204.3 4884.85 204.3C4892.95 204.3 4898.35 205.8 4901.95 207.9C4904.65 210 4906.75 213.9 4906.75 218.7C4906.75 223.5 4902.55 228.3 4896.55 230.1V230.7C4901.35 232.5 4904.05 236.1 4905.55 242.7C4907.05 250.2 4907.95 253.2 4909.15 255H4896.85C4895.35 253.2 4894.45 248.7 4892.95 243C4892.05 237.6 4889.05 235.2 4882.75 235.2H4877.35V255.1ZM4877.65 227.2H4883.05C4889.35 227.2 4894.45 225.1 4894.45 220C4894.45 214.9 4891.15 212.5 4883.95 212.5C4876.75 212.5 4878.85 212.8 4877.65 213.1V227.2Z" fill="#0088CE"/>
</svg>
